<svg width="600" height="192" viewBox="0 0 600 192" fill="none" xmlns="http://www.w3.org/2000/svg">
<g clip-path="url(#clip0_307_19)">
<rect width="600" height="192" rx="30" fill="white"/>
<path d="M271.876 281.361C253.128 301.562 229.522 316.629 203.305 325.128C177.088 333.628 149.133 335.277 122.099 329.918C95.0645 324.559 69.8515 312.371 48.859 294.514C27.8665 276.657 11.7931 253.725 2.16841 227.9C-7.4563 202.075 -10.312 174.217 -6.12705 146.976C-1.94206 119.736 9.14443 94.0195 26.0773 72.2747C43.0102 50.5298 65.2261 33.4801 90.6108 22.748C115.995 12.0158 143.704 7.95845 171.1 10.9619L153.5 171.5L271.876 281.361Z" fill="#408499"/>
<path d="M39.5266 96.6743C50.5636 77.8164 65.3484 61.4279 82.9441 48.5476L173.979 175.365L39.5266 96.6743Z" fill="white"/>
<path d="M20.841 99.4875C26.8178 95.9209 33.4385 93.5665 40.3252 92.5586C47.2119 91.5507 54.2297 91.9092 60.9779 93.6134C67.7261 95.3177 74.0725 98.3344 79.6548 102.491C85.2371 106.648 89.946 111.864 93.5126 117.841L48.0001 145L20.841 99.4875Z" fill="#408499"/>
<path d="M149.719 263.523C131.239 270.575 110.946 271.32 91.9998 265.64C73.0532 259.961 56.5161 248.176 44.9633 232.121C33.4104 216.066 27.4901 196.642 28.1242 176.873C28.7582 157.103 35.9111 138.098 48.469 122.817L117.747 179.747L149.719 263.523Z" fill="white"/>
<path d="M132.123 229.623C110.143 219.625 90.8895 204.489 75.9837 185.492C61.078 166.495 50.9573 144.193 46.4746 120.466L194.5 92.5L132.123 229.623Z" fill="#408499"/>
<circle cx="147.824" cy="95.8244" r="80.1983" transform="rotate(64.6323 147.824 95.8244)" fill="#408499"/>
<circle cx="210.464" cy="98.4642" r="118.967" transform="rotate(64.6323 210.464 98.4642)" fill="white"/>
<path d="M138.52 66.88H146.152L166.024 118H157.528L152.128 104.104H132.4L127.072 118H118.504L138.52 66.88ZM150.544 98.128L142.336 75.736L133.84 98.128H150.544ZM171.34 65.44H179.26V107.128C179.26 109.048 179.548 110.272 180.124 110.8C180.7 111.328 181.42 111.592 182.284 111.592C183.244 111.592 184.132 111.496 184.948 111.304C185.812 111.112 186.556 110.872 187.18 110.584L188.332 116.848C187.18 117.328 185.812 117.736 184.228 118.072C182.644 118.408 181.228 118.576 179.98 118.576C177.292 118.576 175.18 117.832 173.644 116.344C172.108 114.808 171.34 112.696 171.34 110.008V65.44ZM250.524 118H242.604V96.904C242.604 93.4 242.028 90.832 240.876 89.2C239.724 87.568 238.044 86.752 235.836 86.752C233.628 86.752 231.564 87.592 229.644 89.272C227.772 90.904 226.452 93.04 225.684 95.68V118H217.764V96.904C217.764 93.4 217.188 90.832 216.036 89.2C214.884 87.568 213.228 86.752 211.068 86.752C208.86 86.752 206.796 87.568 204.876 89.2C203.004 90.832 201.66 92.968 200.844 95.608V118H192.924V80.344H200.124V87.904C201.612 85.264 203.556 83.248 205.956 81.856C208.404 80.416 211.188 79.696 214.308 79.696C217.428 79.696 219.876 80.512 221.652 82.144C223.476 83.776 224.604 85.816 225.036 88.264C226.668 85.48 228.66 83.368 231.012 81.928C233.412 80.44 236.148 79.696 239.22 79.696C241.428 79.696 243.276 80.104 244.764 80.92C246.252 81.736 247.404 82.864 248.22 84.304C249.036 85.696 249.612 87.328 249.948 89.2C250.332 91.024 250.524 92.968 250.524 95.032V118ZM276.57 118.72C273.594 118.72 270.93 118.216 268.578 117.208C266.226 116.152 264.186 114.712 262.458 112.888C260.778 111.064 259.482 109 258.57 106.696C257.658 104.344 257.202 101.848 257.202 99.208C257.202 96.568 257.658 94.072 258.57 91.72C259.482 89.368 260.778 87.304 262.458 85.528C264.186 83.704 266.226 82.288 268.578 81.28C270.978 80.224 273.642 79.696 276.57 79.696C279.498 79.696 282.138 80.224 284.49 81.28C286.89 82.288 288.93 83.704 290.61 85.528C292.338 87.304 293.658 89.368 294.57 91.72C295.482 94.072 295.938 96.568 295.938 99.208C295.938 101.848 295.482 104.344 294.57 106.696C293.658 109 292.338 111.064 290.61 112.888C288.93 114.712 286.89 116.152 284.49 117.208C282.138 118.216 279.498 118.72 276.57 118.72ZM265.338 99.28C265.338 101.68 265.842 103.84 266.85 105.76C267.858 107.68 269.202 109.192 270.882 110.296C272.562 111.4 274.458 111.952 276.57 111.952C278.634 111.952 280.506 111.4 282.186 110.296C283.914 109.144 285.282 107.608 286.29 105.688C287.298 103.72 287.802 101.56 287.802 99.208C287.802 96.808 287.298 94.648 286.29 92.728C285.282 90.808 283.914 89.296 282.186 88.192C280.506 87.04 278.634 86.464 276.57 86.464C274.458 86.464 272.562 87.04 270.882 88.192C269.202 89.344 267.858 90.88 266.85 92.8C265.842 94.672 265.338 96.832 265.338 99.28ZM336.731 118H328.811V96.904C328.811 93.496 328.187 90.952 326.939 89.272C325.691 87.592 323.939 86.752 321.683 86.752C320.291 86.752 318.851 87.136 317.363 87.904C315.875 88.672 314.555 89.728 313.403 91.072C312.251 92.368 311.411 93.88 310.883 95.608V118H302.963V65.44H310.883V87.904C312.323 85.36 314.291 83.368 316.787 81.928C319.283 80.44 321.971 79.696 324.851 79.696C327.203 79.696 329.147 80.104 330.683 80.92C332.219 81.736 333.419 82.864 334.283 84.304C335.195 85.696 335.819 87.328 336.155 89.2C336.539 91.024 336.731 92.968 336.731 95.032V118ZM343.188 106.984C343.188 104.584 343.86 102.496 345.204 100.72C346.596 98.896 348.492 97.504 350.892 96.544C353.292 95.536 356.076 95.032 359.244 95.032C360.924 95.032 362.628 95.152 364.356 95.392C366.132 95.632 367.692 96.016 369.036 96.544V94.168C369.036 91.528 368.244 89.464 366.66 87.976C365.076 86.488 362.796 85.744 359.82 85.744C357.708 85.744 355.716 86.128 353.844 86.896C351.972 87.616 349.98 88.648 347.868 89.992L345.204 84.664C347.7 82.984 350.196 81.736 352.692 80.92C355.236 80.104 357.9 79.696 360.684 79.696C365.724 79.696 369.684 81.04 372.564 83.728C375.492 86.368 376.956 90.136 376.956 95.032V109.072C376.956 109.984 377.1 110.632 377.388 111.016C377.724 111.4 378.276 111.616 379.044 111.664V118C378.324 118.144 377.676 118.24 377.1 118.288C376.524 118.336 376.044 118.36 375.66 118.36C373.98 118.36 372.708 117.952 371.844 117.136C370.98 116.32 370.476 115.36 370.332 114.256L370.116 112.096C368.484 114.208 366.396 115.84 363.852 116.992C361.308 118.144 358.74 118.72 356.148 118.72C353.652 118.72 351.42 118.216 349.452 117.208C347.484 116.152 345.948 114.736 344.844 112.96C343.74 111.184 343.188 109.192 343.188 106.984ZM367.164 109.288C367.74 108.664 368.196 108.04 368.532 107.416C368.868 106.792 369.036 106.24 369.036 105.76V101.44C367.692 100.912 366.276 100.528 364.788 100.288C363.3 100 361.836 99.856 360.396 99.856C357.516 99.856 355.164 100.432 353.34 101.584C351.564 102.736 350.676 104.32 350.676 106.336C350.676 107.44 350.964 108.496 351.54 109.504C352.164 110.512 353.028 111.328 354.132 111.952C355.284 112.576 356.7 112.888 358.38 112.888C360.108 112.888 361.764 112.552 363.348 111.88C364.932 111.208 366.204 110.344 367.164 109.288ZM384.188 99.208C384.188 95.608 384.909 92.344 386.349 89.416C387.837 86.44 389.853 84.088 392.396 82.36C394.941 80.584 397.869 79.696 401.181 79.696C404.061 79.696 406.653 80.44 408.957 81.928C411.309 83.416 413.133 85.264 414.429 87.472V65.44H422.349V109.072C422.349 109.984 422.517 110.632 422.853 111.016C423.189 111.4 423.741 111.616 424.509 111.664V118C423.021 118.24 421.869 118.36 421.053 118.36C419.565 118.36 418.293 117.928 417.237 117.064C416.229 116.2 415.701 115.168 415.653 113.968L415.581 111.16C414.141 113.56 412.197 115.432 409.749 116.776C407.301 118.072 404.757 118.72 402.117 118.72C399.525 118.72 397.125 118.216 394.917 117.208C392.757 116.2 390.861 114.784 389.229 112.96C387.645 111.136 386.397 109.048 385.485 106.696C384.621 104.344 384.188 101.848 384.188 99.208ZM414.429 104.464V94.6C413.901 93.064 413.037 91.696 411.837 90.496C410.685 89.248 409.365 88.264 407.877 87.544C406.437 86.824 404.997 86.464 403.557 86.464C401.877 86.464 400.341 86.824 398.949 87.544C397.605 88.264 396.429 89.224 395.421 90.424C394.461 91.624 393.717 92.992 393.189 94.528C392.661 96.064 392.396 97.672 392.396 99.352C392.396 101.08 392.685 102.712 393.261 104.248C393.837 105.736 394.653 107.08 395.709 108.28C396.813 109.432 398.061 110.344 399.453 111.016C400.893 111.64 402.453 111.952 404.133 111.952C405.189 111.952 406.245 111.76 407.301 111.376C408.405 110.992 409.437 110.464 410.397 109.792C411.405 109.12 412.245 108.328 412.917 107.416C413.637 106.504 414.141 105.52 414.429 104.464ZM449.328 118.72C446.352 118.72 443.688 118.216 441.336 117.208C438.984 116.152 436.944 114.712 435.216 112.888C433.536 111.064 432.24 109 431.328 106.696C430.416 104.344 429.96 101.848 429.96 99.208C429.96 96.568 430.416 94.072 431.328 91.72C432.24 89.368 433.536 87.304 435.216 85.528C436.944 83.704 438.984 82.288 441.336 81.28C443.736 80.224 446.4 79.696 449.328 79.696C452.256 79.696 454.896 80.224 457.248 81.28C459.648 82.288 461.688 83.704 463.368 85.528C465.096 87.304 466.416 89.368 467.328 91.72C468.24 94.072 468.696 96.568 468.696 99.208C468.696 101.848 468.24 104.344 467.328 106.696C466.416 109 465.096 111.064 463.368 112.888C461.688 114.712 459.648 116.152 457.248 117.208C454.896 118.216 452.256 118.72 449.328 118.72ZM438.096 99.28C438.096 101.68 438.6 103.84 439.608 105.76C440.616 107.68 441.96 109.192 443.64 110.296C445.32 111.4 447.216 111.952 449.328 111.952C451.392 111.952 453.264 111.4 454.944 110.296C456.672 109.144 458.04 107.608 459.048 105.688C460.056 103.72 460.56 101.56 460.56 99.208C460.56 96.808 460.056 94.648 459.048 92.728C458.04 90.808 456.672 89.296 454.944 88.192C453.264 87.04 451.392 86.464 449.328 86.464C447.216 86.464 445.32 87.04 443.64 88.192C441.96 89.344 440.616 90.88 439.608 92.8C438.6 94.672 438.096 96.832 438.096 99.28ZM509.489 118H501.569V96.904C501.569 93.4 500.993 90.832 499.841 89.2C498.737 87.568 497.081 86.752 494.873 86.752C493.337 86.752 491.801 87.136 490.265 87.904C488.777 88.672 487.433 89.728 486.233 91.072C485.033 92.368 484.169 93.88 483.641 95.608V118H475.721V80.344H482.921V87.904C483.881 86.224 485.129 84.784 486.665 83.584C488.249 82.336 490.025 81.376 491.993 80.704C493.961 80.032 496.049 79.696 498.257 79.696C500.513 79.696 502.361 80.104 503.801 80.92C505.289 81.736 506.441 82.864 507.257 84.304C508.121 85.696 508.697 87.328 508.985 89.2C509.321 91.024 509.489 92.968 509.489 95.032V118ZM518.682 118V80.344H526.602V118H518.682ZM518.682 74.152V65.44H526.602V74.152H518.682ZM533.383 106.984C533.383 104.584 534.055 102.496 535.399 100.72C536.791 98.896 538.687 97.504 541.087 96.544C543.487 95.536 546.271 95.032 549.439 95.032C551.119 95.032 552.823 95.152 554.551 95.392C556.327 95.632 557.887 96.016 559.231 96.544V94.168C559.231 91.528 558.439 89.464 556.855 87.976C555.271 86.488 552.991 85.744 550.015 85.744C547.903 85.744 545.911 86.128 544.039 86.896C542.167 87.616 540.175 88.648 538.063 89.992L535.399 84.664C537.895 82.984 540.391 81.736 542.887 80.92C545.431 80.104 548.095 79.696 550.879 79.696C555.919 79.696 559.879 81.04 562.759 83.728C565.687 86.368 567.151 90.136 567.151 95.032V109.072C567.151 109.984 567.295 110.632 567.583 111.016C567.919 111.4 568.471 111.616 569.239 111.664V118C568.519 118.144 567.871 118.24 567.295 118.288C566.719 118.336 566.239 118.36 565.855 118.36C564.175 118.36 562.903 117.952 562.039 117.136C561.175 116.32 560.671 115.36 560.527 114.256L560.311 112.096C558.679 114.208 556.591 115.84 554.047 116.992C551.503 118.144 548.935 118.72 546.343 118.72C543.847 118.72 541.615 118.216 539.647 117.208C537.679 116.152 536.143 114.736 535.039 112.96C533.935 111.184 533.383 109.192 533.383 106.984ZM557.359 109.288C557.935 108.664 558.391 108.04 558.727 107.416C559.063 106.792 559.231 106.24 559.231 105.76V101.44C557.887 100.912 556.471 100.528 554.983 100.288C553.495 100 552.031 99.856 550.591 99.856C547.711 99.856 545.359 100.432 543.535 101.584C541.759 102.736 540.871 104.32 540.871 106.336C540.871 107.44 541.159 108.496 541.735 109.504C542.359 110.512 543.223 111.328 544.327 111.952C545.479 112.576 546.895 112.888 548.575 112.888C550.303 112.888 551.959 112.552 553.543 111.88C555.127 111.208 556.399 110.344 557.359 109.288Z" fill="#408499"/>
</g>
<defs>
<clipPath id="clip0_307_19">
<rect width="600" height="192" rx="30" fill="white"/>
</clipPath>
</defs>
</svg>
