<svg width="24" height="24" viewBox="0 0 24 24" fill="none" xmlns="http://www.w3.org/2000/svg">
<path d="M17 18C18.1 18 18.99 18.9 18.99 20C18.99 21.1 18.1 22 17 22C15.9 22 15 21.1 15 20C15 18.9 15.9 18 17 18ZM23 2V4H21L17.4 11.59L18.75 14.04C18.91 14.32 19 14.65 19 15C19 16.1 18.1 17 17 17H5V15H16.58C16.72 15 16.83 14.89 16.83 14.75L16.8 14.63L15.9 13H8.45C7.7 13 7.04 12.59 6.7 11.97L3.12 5.48C3.04 5.34 3 5.17 3 5C3 4.45 3.45 4 4 4H18.79L19.73 2H23ZM7 18C8.1 18 8.99 18.9 8.99 20C8.99 21.1 8.1 22 7 22C5.9 22 5 21.1 5 20C5 18.9 5.9 18 7 18Z" fill="#222222"/>
</svg>
