<svg width="24" height="24" viewBox="0 0 24 24" fill="none" xmlns="http://www.w3.org/2000/svg">
<path d="M12 5H14V7.5H12V5Z" fill="#222222"/>
<path d="M12 19H14V16.5H12V19Z" fill="#222222"/>
<path d="M10.83 11L12.5 9.5L11 8L7 12L11 16L12.5 14.5L10.83 13L21 13V11H10.83Z" fill="#222222"/>
<path d="M3 5C3 3.89543 3.89543 3 5 3V3V21V21C3.89543 21 3 20.1046 3 19V5Z" fill="#222222"/>
<path d="M5 19H14V19C14 20.1046 13.1046 21 12 21H5V19Z" fill="#222222"/>
<path d="M5 5H14V5C14 3.89543 13.1046 3 12 3H5V5Z" fill="#222222"/>
</svg>
