<svg width="24" height="24" viewBox="0 0 24 24" fill="none" xmlns="http://www.w3.org/2000/svg">
<path d="M3 6C3 4.89543 3.89543 4 5 4H10V6H3V6Z" fill="#222222"/>
<path d="M3 6H5V21V21C3.89543 21 3 20.1046 3 19V6Z" fill="#222222"/>
<path d="M5 19H20V19C20 20.1046 19.1046 21 18 21H5V19Z" fill="#222222"/>
<rect x="18" y="14" width="2" height="5" fill="#222222"/>
<path d="M12.3945 10.1913L12.5147 7.94974L10.3934 7.94974L10.3934 13.6066L16.0503 13.6066V11.4853L13.8087 11.6055L21 4.41421L19.5858 3L12.3945 10.1913Z" fill="#222222"/>
</svg>
